<svg width="84" height="84" viewBox="0 0 84 84" fill="none" xmlns="http://www.w3.org/2000/svg">
<path d="M72.3638 56.63C72.4704 52.8066 71.7545 49.005 70.2641 45.4823C68.7738 41.9597 66.5439 38.7984 63.7256 36.2124" stroke="white" stroke-width="4.09676" stroke-linecap="round" stroke-linejoin="round"/>
<path d="M13.2051 56.6296C13.2051 40.1384 26.555 28.0973 42.7845 28.0973C46.7194 28.0857 50.6232 28.7954 54.3022 30.1914" stroke="white" stroke-width="4.09676" stroke-linecap="round" stroke-linejoin="round"/>
<path d="M5.35254 67.1003H80.2172" stroke="white" stroke-width="4.09676" stroke-linecap="round" stroke-linejoin="round"/>
<path d="M64.7737 32.5471L63.7266 36.2118L63.2031 38.5678C61.8813 44.0248 59.0723 49.0084 55.0884 52.9648L54.0413 53.7501C53.3788 54.4806 52.5707 55.0643 51.6691 55.4638C50.7674 55.8633 49.7922 56.0698 48.806 56.0698C47.8198 56.0698 46.8445 55.8633 45.9429 55.4638C45.0412 55.0643 44.2332 54.4806 43.5707 53.7501L41.4766 51.656L39.3825 49.5618C38.686 48.8794 38.1327 48.0649 37.7549 47.1659C37.3772 46.2669 37.1826 45.3016 37.1826 44.3265C37.1826 43.3514 37.3772 42.3862 37.7549 41.4872C38.1327 40.5883 38.686 39.7736 39.3825 39.0912L40.4295 38.3059C44.1901 34.339 49.0021 31.5245 54.3031 30.1913H54.5648L60.5854 28.6206L64.7737 32.5471Z" stroke="white" stroke-width="4.09676" stroke-linecap="round" stroke-linejoin="round"/>
<path d="M76.2907 30.4533C75.2998 31.2163 74.1303 31.7131 72.8932 31.8964C71.6561 32.0796 70.3927 31.9434 69.2232 31.5005L64.5113 32.5474L61.1084 28.8828L62.1555 24.1711C61.6136 23.0824 61.3993 21.8596 61.5387 20.6515C61.6781 19.4434 62.1652 18.3018 62.9408 17.3651C65.5584 14.7474 70.7938 15.5328 74.4585 19.1975C78.1232 22.8622 78.9084 27.8357 76.2907 30.4533Z" stroke="white" stroke-width="4.09676" stroke-linecap="round" stroke-linejoin="round"/>
</svg>
