<svg width="65" height="62" viewBox="0 0 65 62" fill="none" xmlns="http://www.w3.org/2000/svg">
<path d="M2.04785 59.1384H62.0654" stroke="white" stroke-width="4.09676" stroke-linecap="round" stroke-linejoin="round"/>
<path d="M5.53027 51.7646C6.63227 45.4871 9.9003 39.7948 14.7657 35.6779C19.6311 31.561 25.7859 29.2802 32.1592 29.2324C38.5196 29.2473 44.6678 31.5209 49.5075 35.6478C54.3473 39.7747 57.5637 45.4865 58.5833 51.7646" stroke="white" stroke-width="4.09676" stroke-linecap="round" stroke-linejoin="round"/>
<path d="M32.1588 29.0273C35.1002 29.0273 37.4846 26.6429 37.4846 23.7015C37.4846 20.7602 35.1002 18.3757 32.1588 18.3757C29.2175 18.3757 26.833 20.7602 26.833 23.7015C26.833 26.6429 29.2175 29.0273 32.1588 29.0273Z" stroke="white" stroke-width="4.09676" stroke-linecap="round" stroke-linejoin="round"/>
<path d="M32.1592 2.19385V9.77282" stroke="white" stroke-width="4.09676" stroke-linecap="round" stroke-linejoin="round"/>
<path d="M16.3867 7.31445V14.6886" stroke="white" stroke-width="4.09676" stroke-linecap="round" stroke-linejoin="round"/>
<path d="M47.9316 7.31445V14.6886" stroke="white" stroke-width="4.09676" stroke-linecap="round" stroke-linejoin="round"/>
</svg>
